{"title":"Justin Bieber - What Do You Mean - Full HD 1080p - Team truHD HE","uid":12363692,"size":49035623,"categoryP":"video","categoryS":"music_videos","magnet":"?xt=urn:btih:f819be8a9325119b3b40117d9733ae98c17bff76&amp;dn=Justin+Bieber+-+What+Do+You+Mean+-+Full+HD+1080p+-+Team+truHD+HE&amp;tr=udp%3A%2F%2Ftracker.openbittorrent.com%3A80&amp;tr=udp%3A%2F%2Fopen.demonii.com%3A1337&amp;tr=udp%3A%2F%2Ftracker.coppersurfer.tk%3A6969&amp;tr=udp%3A%2F%2Fexodus.desync.com%3A6969","seeders":0,"leechers":1,"uploader":"Aainul","files":5,"time":1441564047,"description":"Seeding From High Speed Seedbox \n\nJustin Bieber - What Do You Mean - Full HD 1080p - Team truHD HEVC \n\nSource: WEB-DL \n\nEncoder: truHD HEVC Encoding Team \n\nEncoded File Info: \n\nGeneral \n\nFormat                                   : MPEG-4 \nFormat profile                           : Base Media \nCodec ID                                 : iso4 \nFile size                                : 46.6 MiB \nDuration                                 : 4mn 57s \nOverall bit rate mode                    : Variable \nOverall bit rate                         : 1 311 Kbps \nEncoded date                             : UTC 2015-09-06 14:20:51 \nTagged date                              : UTC 2015-09-06 14:20:51 \n\nVideo \nID                                       : 1 \nFormat                                   : HEVC \nFormat/Info                              : High Efficiency Video Coding \nCodec ID                                 : hvc1 \nCodec ID/Info                            : High Efficiency Video Coding \nDuration                                 : 4mn 57s \nBit rate                                 : 1 211 Kbps \nMaximum bit rate                         : 4 273 Kbps \nWidth                                    : 1 920 pixels \nHeight                                   : 1 080 pixels \nDisplay aspect ratio                     : 16:9 \nFrame rate mode                          : Constant \nFrame rate                               : 23.976 fps \nBits/(Pixel*Frame)                       : 0.024 \nStream size                              : 43.0 MiB (92%) \nTitle                                    : Video \nEncoded date                             : UTC 2015-09-06 14:20:51 \nTagged date                              : UTC 2015-09-06 14:20:54 \n\nAudio \nID                                       : 2 \nFormat                                   : AAC \nFormat/Info                              : Advanced Audio Codec \nFormat profile                           : LC \nCodec ID                                 : 40 \nDuration                                 : 4mn 57s \nBit rate mode                            : Variable \nBit rate                                 : 96.0 Kbps \nMaximum bit rate                         : 116 Kbps \nChannel(s)                               : 2 channels \nChannel positions                        : Front: L R \nSampling rate                            : 44.1 KHz \nCompression mode                         : Lossy \nStream size                              : 3.43 MiB (7%) \nTitle                                    :   \nEncoded date                             : UTC 2015-09-06 12:33:21 \nTagged date                              : UTC 2015-09-06 14:20:54 \n\n\nScreenShots: \n &lt;a href=&quot;\nhttp://i.imgur.com/Mm1hXm6.jpg&quot; rel=&quot;nofollow&quot; target=&quot;_NEW&quot;&gt;\nhttp://i.imgur.com/Mm1hXm6.jpg&lt;/a&gt;\n\nLike Us On FB And Request Accepted\n\nKickAssTorrents:  &lt;a href=&quot;\nhttps://kat.cr/user/Aainul/&quot; rel=&quot;nofollow&quot; target=&quot;_NEW&quot;&gt;\nhttps://kat.cr/user/Aainul/&lt;/a&gt;\nGloTorrents:  &lt;a href=&quot;\nhttps://glodls.to/user/Aainul&quot; rel=&quot;nofollow&quot; target=&quot;_NEW&quot;&gt;\nhttps://glodls.to/user/Aainul&lt;/a&gt;\nThePirateBay:  &lt;a href=&quot;\nhttps://thepiratebay.vg/user/Aainul/&quot; rel=&quot;nofollow&quot; target=&quot;_NEW&quot;&gt;\nhttps://thepiratebay.vg/user/Aainul/&lt;/a&gt;\n1337x Torrents:  &lt;a href=&quot;\nhttp://1337.to/user/Aainul/&quot; rel=&quot;nofollow&quot; target=&quot;_NEW&quot;&gt;\nhttp://1337.to/user/Aainul/&lt;/a&gt;\n\n\nNote: All Videos Uploaded By Me Are For Review Purpose. If You Like IT, Google IT And Buy IT - Thanks\n\n\nKing Regards\ntruHD HEVC Team\n\nShare Among Friends And Relatives","torrent":{"xt":"urn:btih:f819be8a9325119b3b40117d9733ae98c17bff76","amp;dn":"Justin+Bieber+-+What+Do+You+Mean+-+Full+HD+1080p+-+Team+truHD+HE","amp;tr":["udp%3A%2F%2Ftracker.openbittorrent.com%3A80","udp%3A%2F%2Fopen.demonii.com%3A1337","udp%3A%2F%2Ftracker.coppersurfer.tk%3A6969","udp%3A%2F%2Fexodus.desync.com%3A6969"],"infoHash":"f819be8a9325119b3b40117d9733ae98c17bff76","infoHashBuffer":{"type":"Buffer","data":[248,25,190,138,147,37,17,155,59,64,17,125,151,51,174,152,193,123,255,118]},"announce":[],"urlList":[]}}